<?xml version="1.0" standalone="no"?>
<!DOCTYPE svg PUBLIC "-//W3C//DTD SVG 20010904//EN"
 "http://www.w3.org/TR/2001/REC-SVG-20010904/DTD/svg10.dtd">
<svg version="1.0" xmlns="http://www.w3.org/2000/svg"
 width="512.000000pt" height="512.000000pt" viewBox="0 0 512.000000 512.000000"
 preserveAspectRatio="xMidYMid meet">

<g transform="translate(0.000000,512.000000) scale(0.100000,-0.100000)"
fill="#FFFFFF" stroke="none">
<path d="M2225 5106 c-16 -7 -35 -24 -42 -37 -6 -13 -36 -125 -67 -249 -61
-251 -121 -457 -139 -479 -18 -22 -25 47 -26 259 -1 102 -5 191 -10 198 -6 11
-29 4 -102 -31 -188 -90 -374 -231 -506 -386 -239 -279 -413 -683 -439 -1022
l-7 -84 -105 -70 c-272 -180 -501 -405 -632 -619 -195 -320 -187 -599 23 -861
181 -225 544 -438 972 -571 l60 -19 85 -152 c316 -562 635 -856 1040 -955 66
-16 117 -21 230 -21 113 0 164 5 230 21 404 99 723 391 1040 955 l85 151 135
46 c512 175 852 414 990 695 54 112 70 173 70 276 0 333 -298 740 -772 1054
l-105 70 -7 84 c-20 261 -136 584 -296 831 -143 219 -323 394 -535 517 -59 35
-179 93 -191 93 -7 0 -14 -74 -25 -248 -5 -101 -14 -193 -18 -205 -8 -20 -9
-20 -25 11 -21 41 -90 282 -145 512 -24 96 -48 186 -54 199 -23 47 -53 51
-379 51 -227 -1 -311 -4 -333 -14z m495 -952 c36 -17 89 -50 118 -73 l54 -43
-7 -51 c-13 -92 -54 -202 -103 -278 -147 -225 -297 -225 -444 0 -49 76 -90
186 -103 278 l-7 51 53 42 c105 83 178 110 289 107 71 -2 95 -7 150 -33z m291
-1415 c258 -23 495 -73 656 -140 l72 -31 3 -130 3 -131 136 2 c164 3 213 -7
235 -50 19 -37 21 -112 5 -161 -7 -20 -30 -52 -51 -72 -38 -34 -53 -40 -175
-67 l-60 -14 -86 -210 c-209 -512 -400 -838 -621 -1063 -187 -190 -361 -274
-568 -274 -207 0 -381 84 -568 274 -221 224 -410 547 -622 1063 l-86 210 -59
14 c-121 27 -136 32 -171 63 -49 44 -67 83 -67 151 0 68 22 106 74 124 20 7
93 12 177 12 l142 1 0 129 0 129 75 31 c195 81 453 130 792 151 178 10 592 5
764 -11z"/>
</g>
</svg>
