<?xml version="1.0" encoding="utf-8"?>
<!-- Generator: Adobe Illustrator 26.2.1, SVG Export Plug-In . SVG Version: 6.00 Build 0)  -->
<svg version="1.1" id="Capa_1" xmlns="http://www.w3.org/2000/svg" xmlns:xlink="http://www.w3.org/1999/xlink" x="0px" y="0px"
	 viewBox="0 0 266.72 173.89" style="enable-background:new 0 0 266.72 173.89;" xml:space="preserve">
<style type="text/css">
	.st0{fill:#97BE1F;}
	.st1{fill:#EE701E;}
	.st2{fill:#1B4F7D;}
</style>
<path class="st0" d="M96.22,49.16c0,2.69-2.23,4.85-4.93,4.85c-2.69,0-5-2.16-5-4.85s2.23-5,5-5
	C94.06,44.15,96.22,46.39,96.22,49.16z M87.11,64.08h8.28v38.96h-8.28V64.08z"/>
<path class="st0" d="M131.13,103.03v-5.9c-3.13,4.18-7.46,6.72-12.47,6.72c-9.33,0-16.8-9.03-16.8-20.29
	c0-11.26,7.46-20.29,16.8-20.29c3.8,0,7.31,1.49,10.08,4.03V44.97h8.36v58.05H131.13z M119.64,71.01c-5.08,0-9.03,5.67-9.03,12.54
	c0,6.87,3.95,12.54,9.03,12.54c5.08,0,9.11-5.67,9.11-12.54C128.75,76.68,124.72,71.01,119.64,71.01z"/>
<path class="st0" d="M165.76,52.44c6.13,0,12.54,3.8,16.05,9.54l-5.23,4.62c-3.36-4.1-6.72-5.9-10.44-5.9
	c-6.57,0-12.24,6.64-12.24,17.47s5.67,17.39,12.24,17.39c3.74,0,7.08-1.72,10.44-5.9l5.23,4.62c-3.51,5.75-9.93,9.54-16.05,9.54
	c-12.54,0-20.98-11.57-20.98-25.68c0-14.11,8.44-25.75,20.98-25.75V52.44z"/>
<path class="st0" d="M222.5,83.55c0,11.26-8.29,20.29-18.57,20.29s-18.57-9.03-18.57-20.29s8.36-20.29,18.57-20.29
	C214.13,63.26,222.5,72.29,222.5,83.55z M194.07,83.55c0,6.87,4.41,12.54,9.85,12.54c5.44,0,9.93-5.67,9.93-12.54
	s-4.41-12.54-9.93-12.54S194.07,76.68,194.07,83.55z"/>
<path class="st0" d="M229.06,44.97h8.29v58.05h-8.29V44.97z"/>
<path class="st1" d="M71.58,127.35l-1.87,4.33h-1.89l7.18-15.98l6.99,15.98h-1.91l-1.83-4.33h-6.64H71.58z M74.94,119.65l-2.65,6.11
	h5.25L74.94,119.65z"/>
<path class="st1" d="M85.26,131.66h-1.64v-16.68h1.64V131.66z"/>
<path class="st1" d="M90.65,118.58c0,0.65-0.53,1.14-1.18,1.14c-0.65,0-1.18-0.5-1.18-1.14s0.53-1.15,1.18-1.15
	C90.11,117.44,90.65,117.97,90.65,118.58z M90.3,131.66h-1.64v-9.51h1.64V131.66z"/>
<path class="st1" d="M102.58,131.66h-1.64v-1.32h-0.04c-0.84,1.05-1.99,1.58-3.34,1.58c-2.84,0-4.64-2.37-4.64-5
	c0-2.63,1.76-5.04,4.66-5.04c1.32,0,2.52,0.61,3.32,1.62h0.04v-1.36h1.64V131.66z M94.6,126.81c0,1.85,1.11,3.63,3.17,3.63
	c2.06,0,3.25-1.68,3.25-3.61s-1.22-3.44-3.26-3.44C95.84,123.39,94.6,125.04,94.6,126.81z"/>
<path class="st1" d="M112.81,130.34h-0.04c-0.8,1.03-2.02,1.58-3.34,1.58c-2.84,0-4.64-2.37-4.64-5c0-2.63,1.76-5.04,4.66-5.04
	c1.3,0,2.54,0.61,3.32,1.62h0.04v-8.53h1.64v16.68h-1.64V130.34z M106.49,126.81c0,1.85,1.11,3.63,3.17,3.63
	c2.06,0,3.25-1.68,3.25-3.61s-1.22-3.44-3.26-3.44C107.73,123.39,106.49,125.04,106.49,126.81z"/>
<path class="st1" d="M116.65,126.93c0-2.79,2.25-5.04,5.1-5.04s5.1,2.25,5.1,5.04c0,2.79-2.27,5-5.1,5S116.65,129.71,116.65,126.93z
	 M118.29,126.91c0,1.95,1.39,3.51,3.44,3.51c2.04,0,3.44-1.58,3.44-3.51c0-1.93-1.39-3.51-3.44-3.51
	C119.68,123.39,118.29,125,118.29,126.91z"/>
<path class="st1" d="M135.43,116.43h8.05v1.58h-6.34v4.52h6.15v1.58h-6.15v5.99h6.34v1.58h-8.05v-15.25V116.43z"/>
<path class="st1" d="M148.09,123.18h0.04c0.52-0.78,1.34-1.3,2.33-1.3c1.13,0,2.16,0.59,2.67,1.58c0.57-1.05,1.74-1.58,2.9-1.58
	c2.48,0,3.09,1.99,3.09,3.99v5.78h-1.64v-5.52c0-1.24-0.08-2.75-1.77-2.75c-1.89,0-2.1,1.79-2.1,3.23v5.04h-1.64v-5.4
	c0-1.16-0.15-2.86-1.74-2.86c-1.93,0-2.14,1.93-2.14,3.36v4.91h-1.64v-9.51h1.64V123.18z"/>
<path class="st1" d="M163.83,123.51h0.04c0.8-1.05,2-1.62,3.34-1.62c2.84,0,4.64,2.41,4.64,5.04c0,2.63-1.76,5-4.66,5
	c-1.32,0-2.54-0.57-3.32-1.6h-0.04V137h-1.64v-14.83h1.64v1.36V123.51z M163.76,126.81c0,1.85,1.11,3.63,3.17,3.63
	c2.06,0,3.24-1.68,3.24-3.61s-1.22-3.44-3.26-3.44C165,123.39,163.76,125.04,163.76,126.81z"/>
<path class="st1" d="M175.73,123.18h0.04c0.57-0.74,1.07-1.3,2.14-1.3c0.55,0,1.01,0.19,1.49,0.44l-0.78,1.47
	c-0.32-0.23-0.55-0.42-0.99-0.42c-1.81,0-1.89,2.29-1.89,3.51v4.75h-1.64v-9.51h1.64v1.03V123.18z"/>
<path class="st1" d="M181.89,127.25c0.02,1.76,1.3,3.17,3.17,3.17c1.39,0,2.31-0.82,2.94-1.97l1.39,0.78
	c-0.93,1.7-2.5,2.67-4.47,2.67c-2.88,0-4.73-2.16-4.73-4.89c0-2.73,1.66-5.13,4.7-5.13s4.77,2.52,4.6,5.36h-7.62H181.89z
	 M187.77,125.88c-0.23-1.37-1.39-2.48-2.85-2.48c-1.45,0-2.75,1.11-2.94,2.48H187.77z"/>
<path class="st1" d="M195.68,124.37c-0.23-0.5-0.73-0.97-1.32-0.97c-0.59,0-1.2,0.44-1.2,1.05c0,0.88,1.11,1.2,2.25,1.66
	c1.13,0.46,2.25,1.13,2.25,2.73c0,1.79-1.49,3.09-3.28,3.09c-1.62,0-2.9-0.92-3.42-2.4l1.47-0.61c0.42,0.9,0.88,1.51,1.99,1.51
	c0.88,0,1.57-0.59,1.57-1.45c0-2.12-4.37-1.39-4.37-4.39c0-1.6,1.32-2.69,2.88-2.69c1.11,0,2.14,0.76,2.58,1.76l-1.37,0.71
	L195.68,124.37z"/>
<path class="st1" d="M208.83,131.66h-1.64v-1.32h-0.04c-0.84,1.05-1.99,1.58-3.34,1.58c-2.85,0-4.64-2.37-4.64-5
	c0-2.63,1.76-5.04,4.66-5.04c1.32,0,2.52,0.61,3.32,1.62h0.04v-1.36h1.64V131.66z M200.85,126.81c0,1.85,1.11,3.63,3.17,3.63
	c2.06,0,3.24-1.68,3.24-3.61s-1.22-3.44-3.26-3.44C202.09,123.39,200.85,125.04,200.85,126.81z"/>
<path class="st1" d="M213.43,123.18h0.04c0.57-0.74,1.07-1.3,2.14-1.3c0.55,0,1.01,0.19,1.49,0.44l-0.78,1.47
	c-0.32-0.23-0.55-0.42-0.99-0.42c-1.81,0-1.89,2.29-1.89,3.51v4.75h-1.64v-9.51h1.64v1.03V123.18z"/>
<path class="st1" d="M221.08,118.58c0,0.65-0.54,1.14-1.18,1.14c-0.65,0-1.18-0.5-1.18-1.14s0.53-1.15,1.18-1.15
	C220.55,117.44,221.08,117.97,221.08,118.58z M220.74,131.66h-1.64v-9.51h1.64V131.66z"/>
<path class="st1" d="M233.01,131.66h-1.64v-1.32h-0.04c-0.84,1.05-1.99,1.58-3.34,1.58c-2.84,0-4.64-2.37-4.64-5
	c0-2.63,1.76-5.04,4.66-5.04c1.32,0,2.52,0.61,3.32,1.62h0.04v-1.36h1.64V131.66z M225.03,126.81c0,1.85,1.11,3.63,3.17,3.63
	c2.06,0,3.25-1.68,3.25-3.61s-1.22-3.44-3.26-3.44C226.28,123.39,225.03,125.04,225.03,126.81z"/>
<path class="st1" d="M237.67,131.66h-1.64v-16.68h1.64V131.66z"/>
<path class="st1" d="M76.94,39.76c-0.06-12.01-7.02-21.44-17.85-24.87c-17.47-5.54-33.77,6.95-33.85,26.19
	c-0.08,20.77-0.08,41.5-0.08,62.23c0,13.5,0,27.03,0.04,40.55c0,1.79,0.06,3.57,0.29,5.35c1.26,8.84,8.72,15.29,17.62,15.37
	c8.9,0.08,17.45-6.28,17.66-15.14v-44.57c0,0,0-5.36-4.41-5.36s-4.39,5.36-4.39,5.36s0.02,14.3-0.02,38.69
	c0,7.69-3.3,11.8-8.99,11.64c-5.38-0.19-8.4-4.1-8.44-11.51c-0.02-13.46-0.02-26.94-0.02-40.37v-26.1h33.2v26.1h9.28
	c0-21.19,0.08-42.36-0.06-63.55H76.94z M34.52,64.98c0-7.79,0-15.58,0.02-23.38c0.02-11.32,6.89-18.76,16.7-18.69
	c9.74,0.06,16.42,7.6,16.42,18.9v23.16H34.52V64.98z"/>
<path class="st2" d="M238.09,113.7H67.03c-1.76,0-3.19-1.79-3.19-4.01c0-2.21,1.43-4.01,3.19-4.01h171.06
	c1.76,0,3.19,1.79,3.19,4.01C241.28,111.9,239.85,113.7,238.09,113.7z"/>
</svg>
